<?xml version="1.0" standalone="no"?>
<!DOCTYPE svg PUBLIC "-//W3C//DTD SVG 20010904//EN"
 "http://www.w3.org/TR/2001/REC-SVG-20010904/DTD/svg10.dtd">
<svg version="1.0" xmlns="http://www.w3.org/2000/svg"
 width="180.000000pt" height="180.000000pt" viewBox="0 0 180.000000 180.000000"
 preserveAspectRatio="xMidYMid meet">
<metadata>
Created by potrace 1.11, written by Peter Selinger 2001-2013
</metadata>
<g transform="translate(0.000000,180.000000) scale(0.100000,-0.100000)"
fill="#000000" stroke="none">
<path d="M1199 1770 c-1 -3 -3 -266 -3 -585 l-2 -580 287 -287 c158 -159 290
-288 293 -288 3 0 6 393 6 873 l0 872 -290 0 c-160 0 -291 -2 -291 -5z"/>
<path d="M28 1467 c-2 -7 -4 -334 -3 -727 l0 -715 292 -3 c284 -2 291 -2 296
18 3 11 0 20 -6 20 -8 0 -8 3 -2 8 6 4 10 40 10 79 0 42 -4 73 -10 73 -7 0 -6
3 0 8 13 9 13 145 0 154 -7 5 -7 8 0 8 6 0 10 30 10 70 0 38 -4 70 -8 70 -5 0
-5 5 -1 12 4 6 7 89 6 184 l0 172 -290 291 c-160 159 -292 284 -294 278z"/>
</g>
</svg>
