<?xml version="1.0"?>
<svg xmlns="http://www.w3.org/2000/svg" height="512px" viewBox="-61 0 512 512" width="512px"><path d="m37.53125 252.808594c-4.773438 10.03125-7.53125 20.996094-7.53125 32.191406 0 25.878906 13.179688 48.730469 33.175781 62.21875 2.667969 8.789062 6.722657 18.082031 13.113281 24.882812 5.367188 5.699219 9.0625 12.179688 11.300782 18.898438h92.410156v-382.65625c-8.859375-5.167969-19.023438-8.34375-30-8.34375-21.941406 0-41.792969 12.011719-52.25 30.496094-18.210938-2.429688-36.988281 3.882812-50.171875 17.082031-11.339844 11.335937-17.578125 26.398437-17.578125 42.421875 0 7.179688 1.433594 14.101562 3.835938 20.644531-20.832032 16.941407-33.835938 42.078125-33.835938 69.355469 0 30.003906 14.898438 56.449219 37.53125 72.808594zm0 0" fill="#FFFFFF"/><path d="m210 .761719v390.238281h90v-7.9375c0-13.535156 6.136719-27.238281 16.847656-35.820312 46.492188-37.253907 73.152344-92.738282 73.152344-152.242188 0-102.457031-79.484375-186.53125-180-194.238281zm90 209.238281c0-40.136719-19.9375-77.445312-53.351562-99.800781l16.699218-24.929688c41.734375 27.933594 66.652344 74.558594 66.652344 124.730469zm0 0" fill="#FFFFFF"/><path d="m300 436v-15h-210v15c0 41.351562 33.648438 76 75 76h60c41.351562 0 75-34.648438 75-76zm0 0" fill="#FFFFFF"/></svg>
