<svg height="512pt" viewBox="-73 0 512 512.00067" width="512pt" xmlns="http://www.w3.org/2000/svg"><path d="m181.167969 343.53125c-2.652344 0-4.949219-2.667969-6.410157-4.90625-4.972656-7.628906-9.105468-15.957031-12.753906-23.304688l-1.105468-2.238281 1.519531-1.976562c5.394531-7.027344 10.621093-14.253907 15.53125-21.480469l3.25-4.78125 22.207031 31.492188-2.273438 2.378906c-4.355468 7.808594-9.546874 15.222656-15.410156 21.996094-1.25 1.429687-2.15625 2.269531-3.378906 2.644531l-.574219.175781zm0 0" fill="#935252"/><path d="m177.1875 443.433594c-5.417969-18.71875-10.46875-37.914063-15.011719-57.058594l-.304687-1.289062.523437-1.214844c5.300781-12.320313 10.375-24.886719 15.082031-37.351563l3.800782-10.066406 15.96875 43.632813 2.140625 1.566406-.566407 2.617187-17.394531 73.808594zm0 0" fill="#935252"/><path d="m179.242188 281.957031 6.175781-1.113281c4.175781-.753906 8.058593-3.253906 11.679687-5.753906 8.167969-5.632813 16.371094-11.683594 24.378906-17.992188l8.992188-7.082031-18.476562 78.386719zm0 0" fill="#fff"/><path d="m148.089844 318.410156c-3.226563-18.195312-6.054688-36.515625-8.394532-54.449218l-1.171874-8.957032 7.417968 5.152344c7.984375 5.542969 16.054688 10.894531 23.992188 15.902344 2.554687 1.601562 5.289062 3.25 8.125 4.199218l4.960937 1.65625-2.902343 4.355469c-7.777344 11.679688-16.183594 23.105469-24.980469 33.960938l-5.515625 6.804687zm0 0" fill="#fff"/><path d="m159.078125 372.941406c-3.277344-14.53125-6.335937-29.367187-9.089844-44.097656l-.394531-2.101562 1.429688-1.394532c2.003906-2.40625 3.996093-4.851562 5.929687-7.269531l3.898437-4.890625 2.800782 5.589844c3.816406 7.601562 7.152344 13.890625 11.050781 19.882812.695313 1.070313 1.417969 1.988282 2.148437 2.726563l1.800782 1.824219-.898438 2.398437c-3.417968 9.082031-7.144531 18.5-11.078125 27.984375l-4.828125 11.632812zm0 0" fill="#d8deec"/><path d="m183.773438 343.097656 1.496093-1.773437c.144531-.167969.507813-.585938.507813-.585938 5.253906-6.0625 9.988281-12.675781 14.058594-19.644531l3.132812-5.363281 7.269531 10.285156 1.902344 1.5625-.527344 2.460937-12.785156 54.1875zm0 0" fill="#d8deec"/><path d="m256.550781 139.777344c-.035156-.105469-.066406-.203125-.09375-.296875-.148437-.464844-.28125-.859375-.394531-1.136719-1.0625-2.625-2.179688-5.289062-3.300781-7.964844-3.484375-8.328125-7.078125-16.929687-9.539063-25.605468-4.339844-15.3125-6.769531-36.546876-.792968-50.804688v-.03125l.109374-.25-.121093.125c-8.382813 18.382812-19.113281 33.261719-31.0625 43.0625-9.644531 7.921875-20.359375 14.414062-31.84375 19.289062-9.867188 4.1875-20.09375 7.085938-30.398438 8.613282l-9.675781 1.4375 5.898438-7.804688c7.492187-9.914062 12.445312-21.585937 14.316406-33.757812-6.074219 5.46875-12.867188 9.507812-20.0625 13.789062l-1.464844.875c-.828125.5-1.65625.996094-2.484375 1.496094-8.136719 4.914062-16.460937 10.527344-22.273437 18.269531-2.839844 3.773438-4.859376 7.824219-6.011719 12.042969l-3.027344 11.109375-4.511719-10.597656c-8.355468-19.632813-10.394531-41.566407-5.746094-61.761719 4.152344-18.046875 10.273438-30.699219 18.710938-38.671875 10.976562-10.382813 24.9375-18.210937 40.371094-22.644531 10.378906-2.984375 21.59375-4.496094 33.332031-4.496094 9.109375 0 18.46875.917969 27.824219 2.734375 21.109375 4.085937 37.515625 11.984375 48.757812 23.464844 17.878906 18.265625 22.949219 43.8125 15.488282 78.109375-1.960938 9.054687-4.496094 18.5-9.710938 26.21875-2.433594 3.613281-4.363281 5.816406-5.554688 7.027344l-4.726562 4.804687zm0 0" fill="#644c4c"/><g fill="#5b5d6d"><path d="m289.382812 507.917969-.148437-3.839844c-.941406-24.101563.679687-48.359375 4.824219-72.09375-4.191406 23.644531-5.820313 47.804687-4.902344 71.785156l.160156 4.152344-106.390625-.019531-.769531-45.640625 2.996094-.816407 77.367187-88.25c1.753907-2 4.683594-5.347656 4.246094-8.996093-.320313-2.6875-2.339844-4.816407-4.378906-6.761719-8.125-7.761719-16.84375-15.097656-25.90625-21.800781l-6.027344-4.453125 7.058594-2.527344c11.878906-4.25 24.285156-7.078125 36.878906-8.410156l-19.851563-36.007813 5.9375-5.105469c3.667969 2.820313 7.597657 5.605469 12.015626 8.519532 2.832031 1.882812 5.769531 3.769531 8.609374 5.59375l.902344.582031c17.78125 11.425781 36.175782 23.238281 47.25 41.226563 9.992188 16.25 12.957032 36.117187 15.570313 53.648437l15.960937 106.847656c.507813 3.453125.851563 7.339844-1.457031 9.863281-2.136719 2.332032-5.699219 2.527344-8.871094 2.527344zm0 0"/><path d="m182.765625 452.664062 48.582031-206.066406 5.105469 7.765625c1.71875 2.617188 3.714844 5.269531 5.9375 7.890625l.601563.710938.230468.90625 31.050782 56.207031-5.734376.820313c-13.066406 1.871093-25.890624 5.375-38.113281 10.410156 11.234375 7.894531 21.976563 16.6875 31.925781 26.179687 2.03125 1.945313 4.039063 4.0625 4.351563 6.734375.410156 3.3125-1.964844 6.339844-4.222656 8.921875l-72.8125 83.070313zm0 0"/><path d="m63.984375 507.871094.800781-4.675782c4.578125-26.644531 5.128906-53.726562 1.648438-80.488281 3.480468 27.242188 2.847656 54.78125-1.945313 81.863281l-.585937 3.300782-47.214844-.007813c-3.914062 0-8.296875-.25-10.769531-3.21875-2.3125-2.785156-2-6.722656-1.480469-10.523437 5.726562-42.246094 12.972656-85.007813 21.53125-127.085938 2.234375-10.953125 5-24.519531 11.933594-35.585937 9.140625-14.609375 24.542968-23.898438 39.828125-31.761719 2.378906-1.230469 4.855469-2.457031 7.269531-3.652344l.535156-.265625c7.3125-3.617187 15.601563-7.710937 22.917969-12.71875l5.636719 5.441407c-2.386719 3.773437-4.78125 7.519531-7.152344 11.222656l-2.675781 4.191406c-6.375 9.949219-13.597657 21.222656-20.460938 32.511719.292969.003906.585938.007812.875.007812.757813 0 1.503907-.007812 2.246094-.007812 12.183594 0 24.152344 2.152343 35.582031 6.40625l6.484375 2.410156-5.324219 4.417969c-1.972656 1.636718-4.171874 3.054687-6.296874 4.421875l-.652344.425781c-.863282.5625-1.726563 1.121094-2.566406 1.703125-4.449219 3.070313-9.726563 8.03125-9.6875 14.316406.039062 4.277344 2.496093 8.039063 5.234374 11.832031 20.480469 28.324219 44.003907 54.589844 69.921876 78.066407l2.480468.980469.03125 2.65625.738282 43.847656zm0 0"/><path d="m172.335938 453.582031c-23.054688-21.730469-44.109376-45.710937-62.589844-71.277343-2.730469-3.773438-5.1875-7.515626-5.21875-11.796876-.042969-4.9375 3.292968-9.867187 9.644531-14.242187.878906-.609375 1.804687-1.214844 2.734375-1.816406l.488281-.320313c3.945313-2.542968 8.007813-5.160156 10.621094-9.105468-11.597656-5.148438-24.441406-8.105469-37.160156-8.59375l-6.863281-.265626 3.613281-5.839843c5.632812-9.09375 11.515625-18.277344 16.703125-26.378907l.277344-.4375c6.65625-10.40625 13.539062-21.167968 20.195312-32.105468l.226562-1.382813 1.027344-.925781c2.625-2.367188 4.773438-4.59375 6.570313-6.804688l5.859375-7.210937 1.207031 9.214844c5.289063 40.28125 12.707031 80.808593 22.058594 120.453125l.046875.199218s.027344.21875.027344.21875c-.003907 0-.011719-.019531-.023438-.042968l.09375.238281.0625.269531c5.070312 21.414063 10.78125 42.917969 16.976562 63.910156l4.1875 14.195313zm0 0"/></g><path d="m187.195312 240.699219c-12.621093 0-25.164062-3-36.265624-8.675781-21.242188-10.871094-37.785157-31.714844-44.253907-55.765626-1.171875.210938-2.339843.332032-3.519531.332032-3.976562 0-8.082031-1.371094-11.554688-3.855469-4.5625-3.246094-7.550781-8.011719-8.191406-13.070313-.640625-5.0625 1.066406-10.425781 4.683594-14.710937 3.058594-3.652344 7.148438-6.097656 11.511719-6.878906l2.855469-.515625 1.375 2.5625c1.21875 2.269531 2.40625 4.308594 3.628906 6.230468-2.664063-8.347656-.40625-18.773437 5.945312-27.234374 5.808594-7.722657 14.128906-13.335938 22.261719-18.25.902344-.546876 3.953125-2.371094 3.953125-2.371094l.292969-.171875c3.621093-2.160157 7.367187-4.394531 10.914062-6.804688l9.613281-6.527343-3.558593 11.0625c-3.609375 11.21875-9.863281 21.527343-18.089844 29.804687 13.847656-.777344 27.546875-4.039063 40.738281-9.644531 11.480469-4.871094 22.199219-11.359375 31.867188-19.289063 7.304687-6.003906 14.0625-13.722656 20.089844-22.9375l7.269531-11.121093.078125 13.289062c.050781 9.074219 1.503906 18.707031 4.316406 28.628906 2.480469 8.742188 6.074219 17.316406 9.550781 25.605469l.367188.878906c.996093 2.382813 1.984375 4.757813 2.933593 7.113281.117188.289063.261719.714844.414063 1.210938.515625 1.585938 1.402344 4.328125 2.652344 4.566406.144531.027344.277343.039063.394531.039063.574219 0 2.816406-.496094 7.539062-6.898438l1.621094-2.191406 2.636719.707031c10.832031 2.910156 16.363281 11.925782 13.765625 22.433594-2.28125 9.203125-11.375 16.136719-21.152344 16.136719-1.480468 0-2.945312-.164063-4.355468-.492188-.855469 23.855469-16.121094 47.433594-38.023438 58.710938-10.285156 5.296875-22.148438 8.09375-34.304688 8.09375zm0 0" fill="#efb17c"/><path d="m182.429688 281.019531c-4.390626-.144531-8.238282-2.355469-12.453126-5.015625-9.882812-6.230468-19.886718-12.9375-29.734374-19.933594l-2.453126-1.742187.996094-2.839844c2.121094-6.054687 2.523438-12.460937 2.636719-17.929687l.140625-6.75 5.851562 3.363281c1.199219.691406 2.378907 1.335937 3.5 1.914063 11.074219 5.667968 23.621094 8.664062 36.277344 8.664062 12.191406 0 24.0625-2.796875 34.339844-8.085938.21875-.109374.386719-.207031.558594-.304687l4.675781-2.644531 1.195313 5.234375c.792968 3.480469 1.957031 6.945312 3.460937 10.292969l1.386719 3.089843-2.820313 1.878907c-.078125.050781-.160156.101562-.238281.148437-10.519531 8.671875-21.496094 16.957031-32.683594 24.683594-4.578125 3.152343-9.105468 5.980469-14.207031 5.980469-.144531.003906-.289063 0-.429687-.003907zm0 0" fill="#efb17c"/><path d="m364.800781 494.953125-15.957031-106.851563c-2.679688-17.925781-5.714844-38.246093-16.128906-55.175781-11.550782-18.769531-30.34375-30.839843-48.515625-42.515625-3.125-2.007812-6.355469-4.082031-9.464844-6.136718-26.390625-17.46875-40.1875-34.292969-43.34375-52.863282 17.796875-12.253906 29.753906-31.972656 31.863281-52.964844.203125.007813.40625.007813.605469.007813 11.328125 0 22.339844-8.027344 25.113281-19.222656 2.929688-11.832031-2.878906-22.417969-14.238281-26.578125 3.917969-7.316406 6.074219-15.519532 7.792969-23.417969 7.769531-35.738281 2.355468-62.496094-16.554688-81.8125-11.839844-12.089844-28.964844-20.375-50.898437-24.621094-22.132813-4.28125-43.933594-3.644531-63.050781 1.847657-16.058594 4.617187-30.597657 12.777343-42.039063 23.601562-9.042969 8.546875-15.542969 21.863281-19.882813 40.710938-5 21.726562-2.578124 44.933593 6.566407 65.632812-4.40625 1.277344-8.507813 3.960938-11.691407 7.742188-4.339843 5.160156-6.382812 11.660156-5.601562 17.832031.78125 6.175781 4.375 11.960937 9.867188 15.878906 4.375 3.125 9.511718 4.722656 14.46875 4.597656 5.9375 19.179688 18.03125 36.175781 33.675781 47.730469.003906 7.859375-.066407 16.679688-3.304688 23.972656-3.808593 8.578125-11.855469 14.914063-19.640625 21.039063-1.210937.953125-2.40625 1.898437-3.578125 2.839843-8.003906 6.441407-17.726562 11.25-27.132812 15.898438-2.589844 1.28125-5.269531 2.605469-7.863281 3.941406-15.796876 8.128906-31.75 17.78125-41.421876 33.222656-7.332031 11.707032-10.179687 25.695313-12.464843 36.9375-8.546875 42.011719-15.808594 84.859376-21.578125 127.347657-.4414065 3.242187-1.261719 9.277343 2.382812 13.660156 3.890625 4.679687 10.398438 4.683594 13.894532 4.683594l333.667968.082031h.136719c2.988281 0 8.375-.058594 11.847656-3.847656 3.816407-4.167969 2.9375-10.042969 2.46875-13.199219zm-136.671875-160.3125c11.089844 7.738281 21.675782 16.394531 31.453125 25.734375 1.441407 1.375 2.988281 2.953125 3.152344 4.3125.195313 1.621094-1.453125 3.757812-3.265625 5.824219l-72.8125 83.070312 46.449219-197.019531c1.90625 2.894531 4 5.652344 6.230469 8.273438.082031.328124.195312.648437.363281.953124l28.273437 51.15625c-13.410156 1.921876-26.527344 5.5-39.070312 10.664063-1.363282.558594-2.3125 1.820313-2.472656 3.285156-.160157 1.464844.492187 2.902344 1.699218 3.746094zm-30.128906 35.683594-9.675781-26.425781c.167969-.1875.324219-.367188.464843-.527344 5.441407-6.28125 10.308594-13.085938 14.5-20.265625l3.691407 5.230469c.210937.300781.460937.554687.734375.78125zm.242188-54.375c-.222657.234375-.425782.492187-.589844.785156-4.230469 7.597656-9.261719 14.785156-14.953125 21.355469-.765625.878906-1.273438 1.363281-1.53125 1.441406-.210938-.003906-1.414063-.558594-3.058594-3.085938-4.71875-7.246093-8.691406-15.1875-12.523437-22.902343 5.433593-7.078125 10.675781-14.316407 15.671874-21.675781zm11.898437 2.878906-24.015625-34.046875c4.890625-.882812 9.203125-3.609375 13.246094-6.398438 8.339844-5.757812 16.574218-11.839843 24.582031-18.140624zm-58.109375-1.113281c-3.207031-18.042969-6-36.148438-8.375-54.273438 7.925781 5.503906 16.015625 10.871094 24.144531 16 2.925781 1.84375 5.84375 3.5625 8.988281 4.609375-7.703124 11.558594-16.003906 22.855469-24.757812 33.664063zm1.9375 10.347656c2.0625-2.472656 4.097656-4.972656 6.109375-7.492188 3.417969 6.824219 7.019531 13.742188 11.273437 20.273438.886719 1.363281 1.78125 2.46875 2.664063 3.355469-3.503906 9.308593-7.203125 18.632812-11.039063 27.863281-3.289062-14.59375-6.308593-29.253906-9.054687-43.957031.015625-.015625.03125-.027344.046875-.042969zm27.25 19.871094 12.273438 33.53125c.289062.789062.800781 1.429687 1.4375 1.882812l-13.90625 58.976563c-5.4375-18.804688-10.425782-37.78125-14.953126-56.871094 5.308594-12.339844 10.398438-24.945313 15.148438-37.519531zm-83.253906-277.164063c3.96875-17.246093 9.714844-29.238281 17.5625-36.660156 10.507812-9.941406 23.902344-17.449219 38.726562-21.710937 17.898438-5.140626 38.398438-5.722657 59.292969-1.679688 20.292969 3.929688 35.996094 11.445312 46.664063 22.347656 16.867187 17.222656 21.589843 41.578125 14.441406 74.453125-1.886719 8.671875-4.296875 17.679688-9.121094 24.832031-2.085938 3.089844-3.847656 5.203126-5.085938 6.464844-.066406-.203125-.125-.378906-.171874-.519531-.1875-.585937-.355469-1.085937-.496094-1.433594-1.078125-2.664062-2.199219-5.34375-3.324219-8.035156-3.4375-8.222656-6.996094-16.726563-9.382813-25.144531-4.226562-14.929688-6.613281-35.601563-.648437-48.863282.003906-.007812.007813-.011718.011719-.023437.914062-2.027344.011718-4.417969-2.019532-5.332031-2.03125-.914063-4.417968-.011719-5.332031 2.019531-.003906.007813-.007812.011719-.011719.019531-8.175781 18.125-18.632812 32.746094-30.25 42.28125-9.363281 7.683594-19.75 13.976563-30.867187 18.695313-9.589844 4.070312-19.449219 6.863281-29.425781 8.34375 7.84375-10.378907 13.101562-22.699219 15.082031-35.566407.257813-1.6875-.578125-3.359374-2.082031-4.167968-1.511719-.804688-3.363282-.570313-4.625.582031-5.691406 5.203125-12.324219 9.152344-19.347656 13.332031-1.332032.792969-2.664063 1.585938-3.988282 2.386719-8.484375 5.132813-17.1875 11.023437-23.398437 19.289063-3.160157 4.203124-5.40625 8.769531-6.667969 13.386718-8-18.792968-10.046875-39.703125-5.535156-59.296875zm12.570312 104.453125c-.550781-2.0625-2.609375-3.335937-4.714844-2.902344-3.894531.8125-8.230468-.21875-11.894531-2.835937-3.660156-2.613281-6.050781-6.378906-6.546875-10.324219-.5-3.949218.875-8.191406 3.773438-11.632812 2.492187-2.964844 5.757812-4.90625 9.152344-5.515625 1.183593 2.199219 2.4375 4.363281 3.78125 6.484375.757812 1.203125 2.0625 1.878906 3.410156 1.878906.578125 0 1.160156-.125 1.714844-.386719 1.839843-.863281 2.746093-2.964843 2.113281-4.898437-2.324219-7.105469-.296875-16.136719 5.289062-23.566406 5.386719-7.171876 13.339844-12.519532 21.128907-17.234376 1.308593-.789062 2.621093-1.574218 3.9375-2.355468 3.796874-2.257813 7.660156-4.558594 11.402343-7.097656-3.40625 10.5625-9.292969 20.324218-17.125 28.207031-1.175781 1.1875-1.5 2.980469-.8125 4.503906s2.242188 2.464844 3.917969 2.363281c14.277344-.859375 28.421875-4.226562 42.039062-10.007812 11.832032-5.019532 22.875-11.710938 32.835938-19.882813 7.640625-6.277343 14.628906-14.25 20.898438-23.839843.058593 8.589843 1.339843 18.617187 4.476562 29.699218 2.515625 8.886719 6.171875 17.617188 9.703125 26.0625 1.113281 2.660156 2.21875 5.308594 3.289063 7.945313.085937.214843.179687.527343.296874.886719.851563 2.644531 2.144532 6.636718 5.730469 7.3125 2.503907.472656 5.863281-.238282 11.898438-8.410157 8.707031 2.339844 12.992187 9.242188 10.917969 17.617188-2.144532 8.664062-12.027344 14.722656-20.714844 12.710937-1.179688-.273437-2.410156-.003906-3.363282.730469-.957031.730469-1.535156 1.855469-1.578124 3.058594-.769532 22.421875-15.167969 44.628906-35.820313 55.257812-20.21875 10.40625-45.863281 10.179688-66.921875-.59375-20.253906-10.359375-36.03125-30.257812-42.214844-53.234375zm38.539063 60.414063c11.867187 6.070312 25.058593 9.109375 38.121093 9.109375 12.617188 0 25.113282-2.839844 36.164063-8.527344.238281-.121094.46875-.25.703125-.375.878906 3.851562 2.136719 7.53125 3.703125 11.039062-.152344.09375-.304687.183594-.449219.300782-10.445312 8.613281-21.390625 16.878906-32.527344 24.5625-4.125 2.847656-8.1875 5.402344-12.234374 5.269531-3.382813-.101563-6.734376-2.050781-10.449219-4.398437-9.988281-6.300782-19.917969-12.964844-29.550781-19.808594 2.203124-6.277344 2.734374-12.890625 2.859374-19.175782 1.207032.699219 2.425782 1.371094 3.660157 2.003907zm-13.367188 29.175781c5.324219 40.535156 12.722657 80.953125 22.128907 120.851562.039062.304688.105468.601563.214843.886719 5.097657 21.550781 10.78125 42.941407 17.027344 64.125-22.84375-21.539062-43.707031-45.28125-62.09375-70.710937-2.335937-3.234375-4.433594-6.390625-4.457031-9.488282-.035156-4.492187 4.28125-8.417968 7.910156-10.921874 1.023438-.707032 2.082031-1.390626 3.140625-2.070313 4.28125-2.769531 8.710937-5.632813 11.769531-10.257813.652344-.992187.839844-2.21875.503906-3.359374-.335937-1.136719-1.15625-2.074219-2.242187-2.550782-12.125-5.34375-25.335937-8.375-38.601563-8.886718 5.539063-8.945313 11.179688-17.757813 16.667969-26.332032 6.761719-10.5625 13.753907-21.484375 20.523438-32.613281.273437-.449219.441406-.933594.523437-1.425781 2.476563-2.234375 4.855469-4.632813 6.984375-7.246094zm-126.714843 237.269531c-1.273438-1.53125-.976563-4.632812-.597657-7.421875 5.75-42.316406 12.980469-84.988281 21.492188-126.824218 2.15625-10.605469 4.84375-23.800782 11.398437-34.269532 8.640625-13.789062 23.5-22.726562 38.277344-30.328125 2.535156-1.308593 5.183594-2.617187 7.746094-3.882812 7.894531-3.902344 15.992187-7.933594 23.394531-13.007813-3.289063 5.203125-6.578125 10.34375-9.816406 15.402344-6.757813 10.554688-13.746094 21.46875-20.507813 32.589844-.769531 1.265625-.785156 2.847656-.039062 4.125.746094 1.28125 2.132812 2.058594 3.609375 2 12.597656-.394532 25.335937 1.703125 37.164062 6.101562-1.761719 1.464844-3.804687 2.785156-5.914062 4.144532-1.125.726562-2.246094 1.453124-3.339844 2.207031-7.503906 5.175781-11.445313 11.269531-11.398437 17.621093.042968 5.472657 2.984374 9.992188 5.992187 14.152344 20.644531 28.554688 44.359375 55.03125 70.476563 78.6875.359374.328125.769531.570313 1.195312.742188l.667969 39.777344-110.0625-.027344c4.636719-27.015625 5.203125-54.480469 1.664062-81.679688-.289062-2.207031-2.300781-3.765625-4.519531-3.480468-2.207031.289062-3.765625 2.3125-3.476562 4.519531 3.496093 26.855469 2.867187 53.976562-1.851563 80.636719l-43.863281-.011719c-3.230469 0-6.398438-.214844-7.691406-1.773438zm347.390624.625c-1.101562 1.207031-4.183593 1.230469-5.921874 1.230469-.039063 0-.074219 0-.113282 0l-57.117187-.015625c-.929688-23.820313.671875-47.773437 4.773437-71.25.382813-2.195313-1.085937-4.285156-3.277344-4.667969-2.199218-.382812-4.285156 1.085938-4.667968 3.277344-4.179688 23.9375-5.824219 48.351562-4.902344 72.640625l-98.296875-.023437-.652344-38.59375c.734375-.203126 1.417969-.597657 1.957031-1.210938l77.367188-88.269531c2.046875-2.335938 5.859375-6.683594 5.207031-12.101563-.484375-4.007812-3.136719-6.839844-5.585937-9.179687-8.265625-7.890625-17.089844-15.3125-26.296875-22.125 11.605469-4.148438 23.667969-6.902344 35.949219-8.203125 1.34375-.140625 2.527343-.945313 3.152343-2.144532.625-1.199218.605469-2.632812-.046875-3.816406l-19.875-35.960937c4.203125 3.238281 8.375 6.136719 12.25 8.699219 3.15625 2.089843 6.410156 4.179687 9.554688 6.203124 17.414062 11.183594 35.421875 22.75 46.007812 39.953126 9.554688 15.527343 12.457032 34.980468 15.019532 52.140624l15.957031 106.855469c.386719 2.585938.636719 5.386719-.441407 6.5625zm0 0"/></svg>