<svg height="511pt" viewBox="0 1 511 511.999" width="511pt" xmlns="http://www.w3.org/2000/svg"><path d="m505.328125 256.46875c0 137.242188-111.257813 248.496094-248.5 248.496094s-248.496094-111.253906-248.496094-248.496094 111.253907-248.5 248.496094-248.5 248.5 111.257812 248.5 248.5zm0 0" fill="#e4eaf8"/><path d="m38.59375 256.46875c0-132.160156 103.171875-240.207031 233.367188-248.027344-5.007813-.300781-10.050782-.472656-15.132813-.472656-137.242187 0-248.5 111.257812-248.5 248.5s111.257813 248.496094 248.5 248.496094c5.082031 0 10.125-.167969 15.132813-.46875-130.195313-7.824219-233.367188-115.867188-233.367188-248.027344zm0 0" fill="#d8dce5"/><path d="m462.980469 256.46875c0 113.851562-92.296875 206.148438-206.152344 206.148438-113.851563 0-206.148437-92.296876-206.148437-206.148438 0-113.855469 92.296874-206.152344 206.148437-206.152344 113.855469 0 206.152344 92.296875 206.152344 206.152344zm0 0" fill="#54a0ff"/><path d="m88.367188 256.46875c0-107.5 82.289062-195.765625 187.308593-205.285156-6.207031-.566406-12.492187-.867188-18.847656-.867188-113.851563 0-206.148437 92.296875-206.148437 206.152344 0 113.851562 92.296874 206.148438 206.148437 206.148438 6.355469 0 12.640625-.300782 18.847656-.863282-105.019531-9.519531-187.308593-97.785156-187.308593-205.285156zm0 0" fill="#338def"/><path d="m294.359375 342.109375h-75.0625c-7.074219 0-12.867187 5.792969-12.867187 12.867187v5.09375c0 7.078126 5.792968 12.871094 12.867187 12.871094h75.0625c7.078125 0 12.867187-5.792968 12.867187-12.871094v-5.09375c0-7.074218-5.789062-12.867187-12.867187-12.867187zm0 0" fill="#8ac2ff"/><path d="m294.359375 352.269531h-75.0625c-4.152344 0-7.851563-2-10.207031-5.078125-1.660156 2.167969-2.660156 4.863282-2.660156 7.785156v5.09375c0 7.078126 5.792968 12.871094 12.867187 12.871094h75.0625c7.078125 0 12.867187-5.792968 12.867187-12.871094v-5.09375c0-2.921874-.996093-5.617187-2.65625-7.785156-2.359374 3.078125-6.058593 5.078125-10.210937 5.078125zm0 0" fill="#6fb1ff"/><path d="m143.464844 326.871094c-4.746094 1.957031-8.355469-4.289063-4.285156-7.417969l102.964843-79.226563c-6.410156 7.167969-7.898437 17.773438-2.914062 26.40625 4.984375 8.632813 14.914062 12.648438 24.324219 10.679688zm0 0" fill="#e4eaf8"/><path d="m242.375 270.832031c-1.1875-1.246093-2.246094-2.644531-3.144531-4.199219-4.984375-8.632812-3.496094-19.242187 2.914062-26.40625l-102.964843 79.222657c-4.066407 3.132812-.460938 9.378906 4.285156 7.421875l56.238281-23.207032zm0 0" fill="#d8dce5"/><path d="m279.421875 256.46875c0 12.476562-10.113281 22.589844-22.59375 22.589844-12.476563 0-22.589844-10.113282-22.589844-22.589844s10.113281-22.59375 22.589844-22.59375c12.480469 0 22.59375 10.117188 22.59375 22.59375zm0 0" fill="#576574"/><path d="m264.242188 256.46875c0-6.71875 2.933593-12.75 7.589843-16.886719-3.992187-3.546875-9.242187-5.707031-15.003906-5.707031-12.476563 0-22.589844 10.117188-22.589844 22.59375s10.113281 22.589844 22.589844 22.589844c5.761719 0 11.011719-2.15625 15.003906-5.703125-4.65625-4.140625-7.589843-10.167969-7.589843-16.886719zm0 0" fill="#3e4b5a"/><path d="m256.5 42.347656c-117.582031 0-213.652344 95.574219-213.652344 213.652344 0 117.925781 95.984375 213.652344 213.652344 213.652344 118.085938 0 213.652344-95.554688 213.652344-213.652344 0-118.085938-95.558594-213.652344-213.652344-213.652344zm154.386719 124.515625c2.074219 3.589844 6.664062 4.816407 10.246093 2.746094l10.996094-6.347656c13.582032 25.621093 21.71875 54.546875 22.863282 85.238281h-12.71875c-4.144532 0-7.5 3.355469-7.5 7.5 0 4.140625 3.355468 7.5 7.5 7.5h12.71875c-1.144532 30.6875-9.28125 59.617188-22.863282 85.238281l-10.996094-6.347656c-3.585937-2.070313-8.175781-.84375-10.246093 2.746094-2.070313 3.585937-.839844 8.171875 2.746093 10.246093l10.972657 6.335938c-35.210938 55.789062-97.398438 92.933594-168.105469 92.933594-70.710938 0-132.898438-37.144532-168.109375-92.933594l10.972656-6.335938c3.589844-2.074218 4.816407-6.660156 2.746094-10.246093-2.070313-3.589844-6.660156-4.816407-10.246094-2.746094l-10.992187 6.347656c-13.585938-25.621093-21.722656-54.550781-22.867188-85.238281h12.722656c4.140626 0 7.5-3.359375 7.5-7.5 0-4.144531-3.359374-7.5-7.5-7.5h-12.722656c1.144532-30.691406 9.285156-59.617188 22.867188-85.238281l10.992187 6.347656c3.59375 2.070313 8.179688.835937 10.246094-2.746094 2.074219-3.585937.84375-8.175781-2.742187-10.246093l-10.976563-6.335938c15.878906-25.15625 37.238281-46.515625 62.390625-62.390625l6.335938 10.972656c2.074218 3.59375 6.664062 4.816407 10.246093 2.746094 3.585938-2.070313 4.816407-6.65625 2.746094-10.246094l-6.347656-10.992187c25.621093-13.585938 54.550781-21.722656 85.238281-22.867188v12.722656c0 4.140626 3.355469 7.5 7.5 7.5s7.5-3.359374 7.5-7.5v-12.722656c30.6875 1.144532 59.617188 9.28125 85.238281 22.867188l-6.347656 10.992187c-2.070313 3.589844-.839844 8.175781 2.746094 10.246094 3.582031 2.070313 8.171875.847656 10.246093-2.746094l6.335938-10.972656c25.152344 15.875 46.511719 37.234375 62.390625 62.390625l-10.976563 6.335938c-3.585937 2.070312-4.816406 6.660156-2.746093 10.246093zm0 0"/><path d="m264.285156 226.9375c-11.316406-3.03125-22.652344.804688-29.886718 8.632812l-100.207032 77.519532c-4.734375 3.660156-6 10.078125-3.007812 15.261718 2.992187 5.183594 9.1875 7.296876 14.722656 5.03125l117.257812-48.035156c30.699219-7.015625 31.082032-50.382812 1.121094-58.410156zm-102.386718 83.679688 64.835937-50.148438c1.078125 7.257812 4.914063 14.222656 11.011719 19.082031zm80.890624-48.3125c-5.265624-11.421876 5.152344-24.21875 17.613282-20.878907 12.945312 3.472657 15.242187 20.949219 3.640625 27.648438-7.570313 4.371093-17.488281 1.410156-21.253907-6.769531zm0 0"/><path d="m294.03125 334.140625h-75.0625c-11.230469 0-20.367188 9.136719-20.367188 20.367187v5.09375c0 11.230469 9.136719 20.371094 20.367188 20.371094h20.027344c4.144531 0 7.503906-3.359375 7.503906-7.503906 0-4.140625-3.359375-7.5-7.503906-7.5h-20.027344c-2.960938 0-5.367188-2.40625-5.367188-5.367188v-5.09375c0-2.90625 2.457032-5.367187 5.367188-5.367187h75.0625c2.960938 0 5.367188 2.410156 5.367188 5.367187v5.09375c0 2.960938-2.40625 5.367188-5.367188 5.367188h-20.03125c-4.140625 0-7.5 3.359375-7.5 7.5 0 4.144531 3.359375 7.503906 7.5 7.503906h20.03125c11.230469 0 20.367188-9.136718 20.367188-20.371094v-5.09375c0-11.230468-9.136719-20.367187-20.367188-20.367187zm0 0"/><path d="m504.898438 245.980469c4.128906-.289063 7.246093-3.871094 6.960937-8.003907-9.285156-133.421874-120.417969-237.976562-255.359375-237.976562-141.492188 0-256 114.496094-256 256 0 141.492188 114.496094 256 256 256 134.839844 0 246.070312-104.46875 255.359375-237.980469.285156-4.132812-2.832031-7.714843-6.960937-8-4.105469-.285156-7.71875 2.828125-8.003907 6.960938-8.742187 125.617187-114.335937 224.019531-240.394531 224.019531-132.886719 0-241-108.113281-241-241s108.113281-241 241-241c126.058594 0 231.652344 98.402344 240.394531 224.019531.285157 4.132813 3.867188 7.25 8.003907 6.960938zm0 0"/></svg>