<svg xmlns="http://www.w3.org/2000/svg" width="40.816" height="39.796" viewBox="0 0 40.816 39.796"><path d="M13.652,40.044c0,.165-.189.3-.428.3-.272.025-.461-.107-.461-.3,0-.165.189-.3.428-.3C13.438,39.723,13.652,39.855,13.652,40.044Zm-2.559-.37c-.058.165.107.354.354.4a.386.386,0,0,0,.51-.165c.049-.165-.107-.354-.354-.428A.422.422,0,0,0,11.093,39.674Zm3.637-.14c-.239.058-.4.214-.379.4.025.165.239.272.486.214s.4-.214.379-.379S14.969,39.509,14.73,39.534ZM20.145,8A19.733,19.733,0,0,0,0,28.079,20.631,20.631,0,0,0,13.948,47.763c1.053.189,1.424-.461,1.424-1,0-.51-.025-3.325-.025-5.053,0,0-5.76,1.234-6.97-2.452,0,0-.938-2.395-2.288-3.012,0,0-1.884-1.292.132-1.267A4.344,4.344,0,0,1,9.4,37.106c1.8,3.176,4.822,2.263,6,1.72a4.574,4.574,0,0,1,1.317-2.773c-4.6-.51-9.241-1.177-9.241-9.093a6.237,6.237,0,0,1,1.942-4.847,7.775,7.775,0,0,1,.214-5.588c1.72-.535,5.678,2.222,5.678,2.222a19.441,19.441,0,0,1,10.336,0s3.958-2.765,5.678-2.222a7.771,7.771,0,0,1,.214,5.588,6.4,6.4,0,0,1,2.123,4.847c0,7.941-4.847,8.575-9.447,9.093a4.867,4.867,0,0,1,1.4,3.818c0,2.773-.025,6.2-.025,6.88,0,.535.379,1.185,1.424,1A20.441,20.441,0,0,0,40.816,28.079C40.816,16.665,31.559,8,20.145,8ZM8,36.382c-.107.082-.082.272.058.428.132.132.321.189.428.082.107-.082.082-.272-.058-.428C8.295,36.333,8.106,36.275,8,36.382Zm-.889-.667c-.058.107.025.239.189.321a.245.245,0,0,0,.354-.058c.058-.107-.025-.239-.189-.321C7.3,35.609,7.168,35.633,7.11,35.716Zm2.666,2.93c-.132.107-.082.354.107.51.189.189.428.214.535.082.107-.107.058-.354-.107-.51C10.13,38.538,9.883,38.514,9.776,38.645Zm-.938-1.21c-.132.082-.132.3,0,.486s.354.272.461.189a.375.375,0,0,0,0-.51C9.184,37.411,8.97,37.329,8.838,37.435Z" transform="translate(0 -8)" fill="#fff"/></svg>