<svg xmlns="http://www.w3.org/2000/svg" width="150.381" height="195.859" viewBox="0 0 150.381 195.859">
  <g id="idea" transform="translate(2.5 2.499)">
    <path id="Path_70" data-name="Path 70" d="M13.991,94.241a27.664,27.664,0,0,0,9.56,35.194,23.588,23.588,0,0,0,4.888,9.276,18.99,18.99,0,0,1,4.213,7.045H67.1V3.111A22.105,22.105,0,0,0,55.916,0,22.426,22.426,0,0,0,36.439,11.369,22.236,22.236,0,0,0,12.613,41.246a33.07,33.07,0,0,0,1.378,52.995Zm0,0" transform="translate(0)" fill="none" stroke="#fff" stroke-width="5"/>
    <path id="Path_71" data-name="Path 71" d="M210,.762v145.47h33.55v-2.959a17.324,17.324,0,0,1,6.28-13.353A72.641,72.641,0,0,0,210,.762Zm33.55,78a44.688,44.688,0,0,0-19.888-37.2l6.225-9.293a55.858,55.858,0,0,1,24.846,46.5Zm0,0" transform="translate(-131.718 -0.477)" fill="none" stroke="#fff" stroke-width="5"/>
    <path id="Path_72" data-name="Path 72" d="M168.282,426.592V421H90v5.592c0,15.415,12.543,28.331,27.958,28.331h22.366C155.739,454.922,168.282,442.006,168.282,426.592Zm0,0" transform="translate(-56.45 -264.062)" fill="none" stroke="#fff" stroke-width="5"/>
  </g>
</svg>
