<svg xmlns="http://www.w3.org/2000/svg" width="36.221" height="27.166" viewBox="0 0 36.221 27.166"><path d="M35.535,72.97a.426.426,0,0,1,.686.332V87.77a3.4,3.4,0,0,1-3.4,3.4H3.4A3.4,3.4,0,0,1,0,87.77V73.31a.423.423,0,0,1,.686-.332c1.585,1.231,3.686,2.794,10.9,8.037C13.081,82.1,15.6,84.4,18.111,84.381c2.526.021,5.094-2.32,6.53-3.367C31.856,75.772,33.95,74.2,35.535,72.97Zm-17.424,9.14c1.641.028,4-2.066,5.193-2.929,9.388-6.813,10.1-7.407,12.267-9.1a1.693,1.693,0,0,0,.651-1.337V67.4a3.4,3.4,0,0,0-3.4-3.4H3.4A3.4,3.4,0,0,0,0,67.4V68.74a1.7,1.7,0,0,0,.651,1.337c2.165,1.691,2.879,2.292,12.267,9.1C14.106,80.045,16.469,82.139,18.111,82.111Z" transform="translate(0 -64)" fill="#fff"/></svg>