<svg xmlns="http://www.w3.org/2000/svg" width="158.219" height="137.123" viewBox="0 0 158.219 137.123">
  <g id="responsive" transform="translate(1.793 -30.446)">
    <g id="Group_26" data-name="Group 26" transform="translate(-1.793 30.446)">
      <g id="Group_25" data-name="Group 25" transform="translate(0 0)">
        <path id="Path_73" data-name="Path 73" d="M150.308,100.561h-2.637V45.185A13.2,13.2,0,0,0,134.486,32H23.733A13.2,13.2,0,0,0,10.548,45.185V84.739H7.911A7.911,7.911,0,0,0,0,92.65v68.561a7.911,7.911,0,0,0,7.911,7.911H108.116a2.637,2.637,0,0,0,2.637-2.637A13.2,13.2,0,0,0,97.568,153.3H89.657V137.479H121.3v23.733a7.911,7.911,0,0,0,7.911,7.911h21.1a7.911,7.911,0,0,0,7.911-7.911V108.472A7.911,7.911,0,0,0,150.308,100.561Zm-92.294,60.65a2.637,2.637,0,0,1-2.637,2.637H7.911a2.637,2.637,0,0,1-2.637-2.637v-2.637H58.013Zm0-7.911H5.274V92.65a2.637,2.637,0,0,1,2.637-2.637H55.376a2.637,2.637,0,0,1,2.637,2.637Zm39.555,5.274a7.926,7.926,0,0,1,7.46,5.274H62.8a7.82,7.82,0,0,0,.485-2.637v-2.637ZM63.287,153.3V137.479h5.274V153.3Zm10.548,0V137.479H84.383V153.3Zm47.466-21.1H63.287V116.383H121.3Zm0-23.733v2.637H63.287V92.65a7.816,7.816,0,0,0-.9-3.589c.04-.037.092-.047.129-.087L88.621,62.868a2.637,2.637,0,0,0-3.729-3.729L58.786,85.246c-.063.066-.09.15-.145.219a7.812,7.812,0,0,0-3.265-.725H15.822V45.185a7.911,7.911,0,0,1,7.911-7.911H134.486a7.911,7.911,0,0,1,7.911,7.911v55.376H129.212A7.911,7.911,0,0,0,121.3,108.472Zm31.644,52.739a2.637,2.637,0,0,1-2.637,2.637h-21.1a2.637,2.637,0,0,1-2.637-2.637v-2.637h26.37Zm0-7.911h-26.37V108.472a2.637,2.637,0,0,1,2.637-2.637h21.1a2.637,2.637,0,0,1,2.637,2.637Z" transform="translate(0 -32)" fill="#fff"/>
      </g>
    </g>
    <g id="Group_28" data-name="Group 28" transform="translate(15.594 114.119)">
      <g id="Group_27" data-name="Group 27">
        <path id="Path_74" data-name="Path 74" d="M63.225,287.786a2.571,2.571,0,0,0-3.635,0l-10.9,10.9a2.57,2.57,0,0,0,3.572,3.7l.063-.063,10.9-10.9C63.684,290.626,62.762,289.114,63.225,287.786Z" transform="translate(-47.902 -287.034)" fill="#fff"/>
      </g>
    </g>
    <g id="Group_30" data-name="Group 30" transform="translate(31.016 114.15)">
      <g id="Group_29" data-name="Group 29">
        <path id="Path_75" data-name="Path 75" d="M111.162,287.852a2.571,2.571,0,0,0-3.572,0l-10.9,10.9a2.57,2.57,0,1,0,3.572,3.7l.063-.063,10.9-10.9A2.571,2.571,0,0,0,111.162,287.852Z" transform="translate(-95.902 -287.131)" fill="#fff"/>
      </g>
    </g>
    <g id="Group_32" data-name="Group 32" transform="translate(72.4 57.912)">
      <g id="Group_31" data-name="Group 31">
        <path id="Path_76" data-name="Path 76" d="M254.505,112.82a2.571,2.571,0,0,0-3.572,0l-25.447,25.447a2.57,2.57,0,1,0,3.571,3.7l.063-.063,25.447-25.447A2.57,2.57,0,0,0,254.505,112.82Z" transform="translate(-224.702 -112.098)" fill="#fff"/>
      </g>
    </g>
    <g id="Group_34" data-name="Group 34" transform="translate(130.199 121.108)">
      <g id="Group_33" data-name="Group 33">
        <path id="Path_77" data-name="Path 77" d="M416.215,309.508a2.57,2.57,0,0,0-3.572,0l-7.269,7.269a2.57,2.57,0,0,0,3.572,3.7l.063-.063,7.269-7.269A2.57,2.57,0,0,0,416.215,309.508Z" transform="translate(-404.59 -308.786)" fill="#fff"/>
      </g>
    </g>
    <g id="Group_36" data-name="Group 36" transform="translate(74.784 119.571)">
      <g id="Group_35" data-name="Group 35">
        <path id="Path_78" data-name="Path 78" d="M234.7,304h-.026a2.583,2.583,0,1,0,.026,0Z" transform="translate(-232.12 -304)" fill="#fff"/>
      </g>
    </g>
    <g id="Group_38" data-name="Group 38" transform="translate(69.605 42.457)">
      <g id="Group_37" data-name="Group 37" transform="translate(0 0)">
        <path id="Path_79" data-name="Path 79" d="M228.852,64H218.57a2.57,2.57,0,0,0,0,5.141h10.282a2.57,2.57,0,1,0,0-5.141Z" transform="translate(-216 -64)" fill="#fff"/>
      </g>
    </g>
  </g>
</svg>
