<svg xmlns="http://www.w3.org/2000/svg" xmlns:xlink="http://www.w3.org/1999/xlink" width="198" height="180.814" viewBox="0 0 198 180.814">
  <defs>
    <clipPath id="clip-path">
      <rect id="Rectangle_14" data-name="Rectangle 14" width="198" height="180.814" transform="translate(0 1082)" fill="#fff"/>
    </clipPath>
  </defs>
  <g id="Mask_Group_1" data-name="Mask Group 1" transform="translate(0 -1082)" clip-path="url(#clip-path)">
    <g id="speedometer" transform="translate(8.703 1082)">
      <path id="Path_66" data-name="Path 66" d="M222.491,145.322a75.452,75.452,0,1,0,75.452,75.452,75.527,75.527,0,0,0-75.452-75.452ZM277.013,189.3a2.649,2.649,0,0,0,3.618.97l3.883-2.242a69.666,69.666,0,0,1,8.074,30.1H288.1a2.649,2.649,0,1,0,0,5.3h4.492a69.671,69.671,0,0,1-8.074,30.1l-3.883-2.242a2.649,2.649,0,0,0-2.649,4.588l3.875,2.238a70.1,70.1,0,0,1-118.735,0L167,255.871a2.649,2.649,0,0,0-2.649-4.588l-3.882,2.242a69.653,69.653,0,0,1-8.076-30.1h4.493a2.649,2.649,0,0,0,0-5.3h-4.493a69.667,69.667,0,0,1,8.076-30.1l3.882,2.242a2.649,2.649,0,0,0,2.65-4.588l-3.876-2.238a70.72,70.72,0,0,1,22.033-22.033l2.238,3.875a2.649,2.649,0,1,0,4.588-2.649l-2.242-3.882a69.653,69.653,0,0,1,30.1-8.076v4.493a2.649,2.649,0,1,0,5.3,0v-4.493a69.653,69.653,0,0,1,30.1,8.076L253,162.632a2.649,2.649,0,1,0,4.588,2.649l2.238-3.875a70.719,70.719,0,0,1,22.033,22.033l-3.876,2.238a2.65,2.65,0,0,0-.97,3.618Zm0,0" transform="translate(-132.084 -130.367)" fill="#fff"/>
      <g id="Group_20" data-name="Group 20" transform="matrix(-0.454, -0.891, 0.891, -0.454, 51.728, 209.581)">
        <g id="Group_19" data-name="Group 19">
          <g id="Group_23" data-name="Group 23">
            <g id="Group_21" data-name="Group 21">
              <path id="Path_63" data-name="Path 63" d="M513.045,836.613c-.419-.44-5.214-2.367-5.531-2.916a7.993,7.993,0,0,1,1.029-9.325L472.18,852.349a1.523,1.523,0,0,0,1.513,2.621l19.861-8.2Zm-3.341-1.434" transform="translate(-423.205 -738.534)" fill="#fff"/>
            </g>
            <path id="Path_67" data-name="Path 67" d="M492.214,775.578a10.612,10.612,0,0,0-10.555,3.049L446.271,806a4.175,4.175,0,0,0,4.137,7.167l41.41-16.964c10.841-2.478,10.977-17.793.4-20.628ZM456.056,805.13l22.9-17.71a10.667,10.667,0,0,0,3.889,6.739Zm28.567-17.062a5.329,5.329,0,1,1,7.506,2.391A5.335,5.335,0,0,1,484.622,788.068Zm0,0" transform="translate(-399.057 -695.434)" fill="#fff"/>
          </g>
        </g>
      </g>
      <path id="Path_68" data-name="Path 68" d="M715.229,1146.652H688.721a7.2,7.2,0,0,0-7.193,7.193v1.8a7.2,7.2,0,0,0,7.193,7.194h7.073a2.649,2.649,0,1,0,0-5.3h-7.073a1.9,1.9,0,0,1-1.9-1.9v-1.8a1.921,1.921,0,0,1,1.9-1.9h26.508a1.9,1.9,0,0,1,1.9,1.9v1.8a1.9,1.9,0,0,1-1.9,1.9h-7.074a2.649,2.649,0,0,0,0,5.3h7.074a7.2,7.2,0,0,0,7.193-7.194v-1.8A7.2,7.2,0,0,0,715.229,1146.652Zm0,0" transform="translate(-611.568 -1028.649)" fill="#fff"/>
      <path id="Path_69" data-name="Path 69" d="M179.845,86.866a2.651,2.651,0,0,0,2.458-2.827,90.407,90.407,0,1,0,0,12.729,2.649,2.649,0,0,0-5.285-.367,85.11,85.11,0,1,1,0-11.993,2.647,2.647,0,0,0,2.827,2.458Zm0,0" transform="translate(-1.716 0.003)" fill="#fff"/>
    </g>
  </g>
</svg>
